# xmcd
#
# Track frame offsets:
#	150
#	8527
#	17255
#	27562
#	35960
#	44617
#	53162
#	61685
#	67822
#	74287
#	83850
#	93472
#	99862
#	109395
#	117875
#	127690
#	134312
#	143972
#	153082
#	162365
#	169417
#	175795
#	183530
#	191320
#
# Disc length: 2678 seconds
#
# Revision: 1
# Processed by: cddbd v1.5.1PL0 Copyright (c) Steve Scherf et al.
# Submitted via: CDex 1.50Beta5
#
DISCID=3a0a7418
DTITLE=オルゴールメロディー - Christmas Carol
DYEAR=1900
DGENRE=Unclassifiable
TTITLE0=カリオペ60g/聖しこの夜
TTITLE1=レジーナ・フォン/もろびとこぞりて
TTITLE2=レジーナ・フォン/神のみ子はこよいしも
TTITLE3=カリオペ60g/修道院の鐘
TTITLE4=カリオペ60g/もみの木
TTITLE5=カリオペ60g/エサイのねより
TTITLE6=カリオペ60g/一年最後の時間
TTITLE7=ステラ・テーブルタイプ/オーカム リトル チルドレン
TTITLE8=ステラ・テーブルタイプ/聖都
TTITLE9=シンフォニオン・エロイカ/毎年うたうクリスマスのうた
TTITLE10=シンフォニオン・エロイカ/クリスマスのうた(羊飼いの仲間)
TTITLE11=レジーナ・オートチェンジャー/聖しこの夜
TTITLE12=レジーナ・フォン/ジングル ベル
TTITLE13=レジーナ・フォン/牧人ひつじを
TTITLE14=レジーナ・フォン/グリーンスリーヴス
TTITLE15=ミラ・コンソール/ロザリオ
TTITLE16=シンフォニオン・エロイカ/もみの木
TTITLE17=レジーナ・フォン/こんぺい糖の踊り
TTITLE18=レジーナ・フォン/ひいらぎ飾ろう
TTITLE19=レジーナ・オートチェンジャー/アヴェ マリア
TTITLE20=レジーナ・オートチェンジャー/修道院の鐘
TTITLE21=ポリフォン・コンソール１０４/聖しこの夜
TTITLE22=ポリフォン・コンソール１０４/天使のささやき
TTITLE23=シンフォニオン・エロイカ/一年最後の時間
EXTD=
EXTT0=
EXTT1=
EXTT2=
EXTT3=
EXTT4=
EXTT5=
EXTT6=
EXTT7=
EXTT8=
EXTT9=
EXTT10=
EXTT11=
EXTT12=
EXTT13=
EXTT14=
EXTT15=
EXTT16=
EXTT17=
EXTT18=
EXTT19=
EXTT20=
EXTT21=
EXTT22=
EXTT23=
PLAYORDER=
